{
  "accessors": [
    {
      "bufferView": 2,
      "componentType": 5126,
      "count": 65532,
      "max": [
        0.036578647792339325,
        0.0326945036649704,
        0.0675744116306305
      ],
      "min": [
        -0.01856169104576111,
        -0.031163178384304047,
        0.023431479930877686
      ],
      "type": "VEC3"
    },
    {
      "bufferView": 2,
      "byteOffset": 786384,
      "componentType": 5126,
      "count": 65532,
      "max": [
        0.9999306797981262,
        0.9999704957008362,
        0.9999805092811584
      ],
      "min": [
        -0.9997434020042419,
        -0.9999040365219116,
        -0.9864137172698975
      ],
      "type": "VEC3"
    },
    {
      "bufferView": 1,
      "componentType": 5126,
      "count": 65532,
      "max": [
        0.9993188381195068,
        0.9704588651657104
      ],
      "min": [
        0.000244140625,
        0.00024791492614895105
      ],
      "type": "VEC2"
    },
    {
      "bufferView": 1,
      "byteOffset": 524256,
      "componentType": 5126,
      "count": 65532,
      "max": [
        0.9993188381195068,
        0.9704588651657104
      ],
      "min": [
        0.000244140625,
        0.00024791492614895105
      ],
      "type": "VEC2"
    },
    {
      "bufferView": 0,
      "componentType": 5125,
      "count": 311415,
      "type": "SCALAR"
    },
    {
      "bufferView": 2,
      "byteOffset": 1572768,
      "componentType": 5126,
      "count": 65532,
      "max": [
        0.03674620762467384,
        0.025798842310905457,
        0.05926414206624031
      ],
      "min": [
        -0.025460071861743927,
        -0.03378530591726303,
        -4.0801237446430605e-06
      ],
      "type": "VEC3"
    },
    {
      "bufferView": 2,
      "byteOffset": 2359152,
      "componentType": 5126,
      "count": 65532,
      "max": [
        0.9999974370002747,
        0.9988189935684204,
        0.9999822974205017
      ],
      "min": [
        -0.9999572038650513,
        -0.9999933242797852,
        -1.0
      ],
      "type": "VEC3"
    },
    {
      "bufferView": 1,
      "byteOffset": 1048512,
      "componentType": 5126,
      "count": 65532,
      "max": [
        0.9992939233779907,
        0.9675291776657104
      ],
      "min": [
        0.000244140625,
        0.0002483321586623788
      ],
      "type": "VEC2"
    },
    {
      "bufferView": 1,
      "byteOffset": 1572768,
      "componentType": 5126,
      "count": 65532,
      "max": [
        0.9992939233779907,
        0.9675291776657104
      ],
      "min": [
        0.000244140625,
        0.0002483321586623788
      ],
      "type": "VEC2"
    },
    {
      "bufferView": 0,
      "byteOffset": 1245660,
      "componentType": 5125,
      "count": 319377,
      "type": "SCALAR"
    },
    {
      "bufferView": 2,
      "byteOffset": 3145536,
      "componentType": 5126,
      "count": 65532,
      "max": [
        0.036926090717315674,
        0.035187557339668274,
        0.05641860514879227
      ],
      "min": [
        -0.03198694437742233,
        -0.03194958344101906,
        3.8552094338228926e-05
      ],
      "type": "VEC3"
    },
    {
      "bufferView": 2,
      "byteOffset": 3931920,
      "componentType": 5126,
      "count": 65532,
      "max": [
        0.9998660087585449,
        0.9998345375061035,
        0.9999973177909851
      ],
      "min": [
        -0.9999522566795349,
        -0.9999790191650391,
        -0.9920854568481445
      ],
      "type": "VEC3"
    },
    {
      "bufferView": 1,
      "byteOffset": 2097024,
      "componentType": 5126,
      "count": 65532,
      "max": [
        0.9997115731239319,
        0.9967957735061646
      ],
      "min": [
        0.000244140625,
        0.0002458287635818124
      ],
      "type": "VEC2"
    },
    {
      "bufferView": 1,
      "byteOffset": 2621280,
      "componentType": 5126,
      "count": 65532,
      "max": [
        0.9997115731239319,
        0.9967957735061646
      ],
      "min": [
        0.000244140625,
        0.0002458287635818124
      ],
      "type": "VEC2"
    },
    {
      "bufferView": 0,
      "byteOffset": 2523168,
      "componentType": 5125,
      "count": 294141,
      "type": "SCALAR"
    },
    {
      "bufferView": 2,
      "byteOffset": 4718304,
      "componentType": 5126,
      "count": 65532,
      "max": [
        0.036952123045921326,
        0.02955107018351555,
        0.05613121762871742
      ],
      "min": [
        -0.03195451945066452,
        -0.03397304564714432,
        2.7939675018018306e-09
      ],
      "type": "VEC3"
    },
    {
      "bufferView": 2,
      "byteOffset": 5504688,
      "componentType": 5126,
      "count": 65532,
      "max": [
        0.9999626874923706,
        0.9999796152114868,
        0.9999958872795105
      ],
      "min": [
        -0.9999970197677612,
        -0.9999933242797852,
        -0.9999899864196777
      ],
      "type": "VEC3"
    },
    {
      "bufferView": 1,
      "byteOffset": 3145536,
      "componentType": 5126,
      "count": 65532,
      "max": [
        0.9996230006217957,
        0.9997557401657104
      ],
      "min": [
        0.000244140625,
        0.0002445174613967538
      ],
      "type": "VEC2"
    },
    {
      "bufferView": 1,
      "byteOffset": 3669792,
      "componentType": 5126,
      "count": 65532,
      "max": [
        0.9996230006217957,
        0.9997557401657104
      ],
      "min": [
        0.000244140625,
        0.0002445174613967538
      ],
      "type": "VEC2"
    },
    {
      "bufferView": 0,
      "byteOffset": 3699732,
      "componentType": 5125,
      "count": 295407,
      "type": "SCALAR"
    },
    {
      "bufferView": 2,
      "byteOffset": 6291072,
      "componentType": 5126,
      "count": 65532,
      "max": [
        0.03633825108408928,
        0.0369015671312809,
        0.059102192521095276
      ],
      "min": [
        -0.028358733281493187,
        -0.026794610545039177,
        2.7939675018018306e-09
      ],
      "type": "VEC3"
    },
    {
      "bufferView": 2,
      "byteOffset": 7077456,
      "componentType": 5126,
      "count": 65532,
      "max": [
        0.9998722672462463,
        0.9999544620513916,
        0.9999848008155823
      ],
      "min": [
        -0.9998209476470947,
        -0.9997768402099609,
        -0.9998963475227356
      ],
      "type": "VEC3"
    },
    {
      "bufferView": 1,
      "byteOffset": 4194048,
      "componentType": 5126,
      "count": 65532,
      "max": [
        0.9993621706962585,
        0.9851073026657104
      ],
      "min": [
        0.000244140625,
        0.00024404062423855066
      ],
      "type": "VEC2"
    },
    {
      "bufferView": 1,
      "byteOffset": 4718304,
      "componentType": 5126,
      "count": 65532,
      "max": [
        0.9993621706962585,
        0.9851073026657104
      ],
      "min": [
        0.000244140625,
        0.00024404062423855066
      ],
      "type": "VEC2"
    },
    {
      "bufferView": 0,
      "byteOffset": 4881360,
      "componentType": 5125,
      "count": 287796,
      "type": "SCALAR"
    },
    {
      "bufferView": 2,
      "byteOffset": 7863840,
      "componentType": 5126,
      "count": 50074,
      "max": [
        0.031718842685222626,
        0.036934785544872284,
        0.06737011671066284
      ],
      "min": [
        -0.025945506989955902,
        -0.00377368344925344,
        2.7939675018018306e-09
      ],
      "type": "VEC3"
    },
    {
      "bufferView": 2,
      "byteOffset": 8464728,
      "componentType": 5126,
      "count": 50074,
      "max": [
        0.9998614192008972,
        0.9999544620513916,
        0.9999872446060181
      ],
      "min": [
        -0.9998762011528015,
        -0.9999719262123108,
        -0.9999678730964661
      ],
      "type": "VEC3"
    },
    {
      "bufferView": 1,
      "byteOffset": 5242560,
      "componentType": 5126,
      "count": 50074,
      "max": [
        0.9992236495018005,
        0.9948729276657104
      ],
      "min": [
        0.00024414061044808477,
        0.000245769158937037
      ],
      "type": "VEC2"
    },
    {
      "bufferView": 1,
      "byteOffset": 5643152,
      "componentType": 5126,
      "count": 50074,
      "max": [
        0.9992236495018005,
        0.9948729276657104
      ],
      "min": [
        0.00024414061044808477,
        0.000245769158937037
      ],
      "type": "VEC2"
    },
    {
      "bufferView": 0,
      "byteOffset": 6032544,
      "componentType": 5125,
      "count": 205542,
      "type": "SCALAR"
    }
  ],
  "asset": {
    "extras": {
      "author": "Clairelise (https://sketchfab.com/Clairelise)",
      "license": "CC-BY-4.0 (http://creativecommons.org/licenses/by/4.0/)",
      "source": "https://sketchfab.com/3d-models/cupcake-orange-realityscan-9989ed7072c4439e9d7fbe2c3b24c9d1",
      "title": "Cupcake Orange - RealityScan"
    },
    "generator": "Sketchfab-16.9.0",
    "version": "2.0"
  },
  "bufferViews": [
    {
      "buffer": 0,
      "byteLength": 6854712,
      "name": "floatBufferViews",
      "target": 34963
    },
    {
      "buffer": 0,
      "byteLength": 6043744,
      "byteOffset": 6854712,
      "byteStride": 8,
      "name": "floatBufferViews",
      "target": 34962
    },
    {
      "buffer": 0,
      "byteLength": 9065616,
      "byteOffset": 12898456,
      "byteStride": 12,
      "name": "floatBufferViews",
      "target": 34962
    }
  ],
  "buffers": [
    {
      "byteLength": 21964072,
      "uri": "scene.bin"
    }
  ],
  "extensionsUsed": [
    "KHR_materials_unlit"
  ],
  "images": [
    {
      "uri": "textures/tex_u1_v1_baseColor.jpeg"
    }
  ],
  "materials": [
    {
      "doubleSided": true,
      "extensions": {
        "KHR_materials_unlit": {}
      },
      "name": "tex_u1_v1",
      "pbrMetallicRoughness": {
        "baseColorTexture": {
          "index": 0
        },
        "metallicFactor": 0.0
      }
    }
  ],
  "meshes": [
    {
      "name": "model_tex_u1_v1_0",
      "primitives": [
        {
          "attributes": {
            "NORMAL": 1,
            "POSITION": 0,
            "TEXCOORD_0": 2,
            "TEXCOORD_1": 3
          },
          "indices": 4,
          "material": 0,
          "mode": 4
        }
      ]
    },
    {
      "name": "model_tex_u1_v1_0",
      "primitives": [
        {
          "attributes": {
            "NORMAL": 6,
            "POSITION": 5,
            "TEXCOORD_0": 7,
            "TEXCOORD_1": 8
          },
          "indices": 9,
          "material": 0,
          "mode": 4
        }
      ]
    },
    {
      "name": "model_tex_u1_v1_0",
      "primitives": [
        {
          "attributes": {
            "NORMAL": 11,
            "POSITION": 10,
            "TEXCOORD_0": 12,
            "TEXCOORD_1": 13
          },
          "indices": 14,
          "material": 0,
          "mode": 4
        }
      ]
    },
    {
      "name": "model_tex_u1_v1_0",
      "primitives": [
        {
          "attributes": {
            "NORMAL": 16,
            "POSITION": 15,
            "TEXCOORD_0": 17,
            "TEXCOORD_1": 18
          },
          "indices": 19,
          "material": 0,
          "mode": 4
        }
      ]
    },
    {
      "name": "model_tex_u1_v1_0",
      "primitives": [
        {
          "attributes": {
            "NORMAL": 21,
            "POSITION": 20,
            "TEXCOORD_0": 22,
            "TEXCOORD_1": 23
          },
          "indices": 24,
          "material": 0,
          "mode": 4
        }
      ]
    },
    {
      "name": "model_tex_u1_v1_0",
      "primitives": [
        {
          "attributes": {
            "NORMAL": 26,
            "POSITION": 25,
            "TEXCOORD_0": 27,
            "TEXCOORD_1": 28
          },
          "indices": 29,
          "material": 0,
          "mode": 4
        }
      ]
    }
  ],
  "nodes": [
    {
      "children": [
        1
      ],
      "matrix": [
        1.0,
        0.0,
        0.0,
        0.0,
        0.0,
        2.220446049250313e-16,
        -1.0,
        0.0,
        0.0,
        1.0,
        2.220446049250313e-16,
        0.0,
        0.0,
        0.0,
        0.0,
        1.0
      ],
      "name": "Sketchfab_model"
    },
    {
      "children": [
        2
      ],
      "matrix": [
        1.0,
        0.0,
        0.0,
        0.0,
        0.0,
        0.0,
        1.0,
        0.0,
        0.0,
        -1.0,
        0.0,
        0.0,
        0.0,
        0.0,
        0.0,
        1.0
      ],
      "name": "model.fbx"
    },
    {
      "children": [
        3
      ],
      "name": "RootNode"
    },
    {
      "children": [
        4,
        5,
        6,
        7,
        8,
        9
      ],
      "matrix": [
        1.0,
        0.0,
        0.0,
        0.0,
        0.0,
        2.220446049250313e-16,
        -1.0,
        0.0,
        0.0,
        1.0,
        2.220446049250313e-16,
        0.0,
        0.0,
        0.0,
        0.0,
        1.0
      ],
      "name": "model"
    },
    {
      "mesh": 0,
      "name": "model_tex_u1_v1_0"
    },
    {
      "mesh": 1,
      "name": "model_tex_u1_v1_0"
    },
    {
      "mesh": 2,
      "name": "model_tex_u1_v1_0"
    },
    {
      "mesh": 3,
      "name": "model_tex_u1_v1_0"
    },
    {
      "mesh": 4,
      "name": "model_tex_u1_v1_0"
    },
    {
      "mesh": 5,
      "name": "model_tex_u1_v1_0"
    }
  ],
  "samplers": [
    {
      "magFilter": 9729,
      "minFilter": 9987,
      "wrapS": 10497,
      "wrapT": 10497
    }
  ],
  "scene": 0,
  "scenes": [
    {
      "name": "Sketchfab_Scene",
      "nodes": [
        0
      ]
    }
  ],
  "textures": [
    {
      "sampler": 0,
      "source": 0
    }
  ]
}
