{
  "accessors": [
    {
      "bufferView": 2,
      "componentType": 5126,
      "count": 5537,
      "max": [
        0.14562977850437164,
        0.05023147910833359,
        0.14656665921211243
      ],
      "min": [
        -0.1455518901348114,
        -0.05332953855395317,
        -0.14493994414806366
      ],
      "type": "VEC3"
    },
    {
      "bufferView": 2,
      "byteOffset": 66444,
      "componentType": 5126,
      "count": 5537,
      "max": [
        0.9999982118606567,
        1.0,
        0.9999803304672241
      ],
      "min": [
        -0.9999101161956787,
        -1.0,
        -0.9999964237213135
      ],
      "type": "VEC3"
    },
    {
      "bufferView": 1,
      "componentType": 5126,
      "count": 5537,
      "max": [
        1.0000001192092896,
        1.0
      ],
      "min": [
        -2.220446313948109e-16,
        -1.1920928955078125e-07
      ],
      "type": "VEC2"
    },
    {
      "bufferView": 1,
      "byteOffset": 44296,
      "componentType": 5126,
      "count": 5537,
      "max": [
        1.0000001192092896,
        1.0
      ],
      "min": [
        -2.220446313948109e-16,
        -1.1920928955078125e-07
      ],
      "type": "VEC2"
    },
    {
      "bufferView": 1,
      "byteOffset": 88592,
      "componentType": 5126,
      "count": 5537,
      "max": [
        1.0000001192092896,
        1.0
      ],
      "min": [
        -2.220446313948109e-16,
        -1.1920928955078125e-07
      ],
      "type": "VEC2"
    },
    {
      "bufferView": 0,
      "componentType": 5125,
      "count": 32256,
      "type": "SCALAR"
    },
    {
      "bufferView": 2,
      "byteOffset": 132888,
      "componentType": 5126,
      "count": 5224,
      "max": [
        0.14426489174365997,
        0.05720305070281029,
        0.15215899050235748
      ],
      "min": [
        -0.14870887994766235,
        -0.04624823480844498,
        -0.1456112265586853
      ],
      "type": "VEC3"
    },
    {
      "bufferView": 2,
      "byteOffset": 195576,
      "componentType": 5126,
      "count": 5224,
      "max": [
        0.9998306035995483,
        0.9999831914901733,
        0.9999401569366455
      ],
      "min": [
        -0.9999812841415405,
        -0.999988317489624,
        -0.9987390041351318
      ],
      "type": "VEC3"
    },
    {
      "bufferView": 1,
      "byteOffset": 132888,
      "componentType": 5126,
      "count": 5224,
      "max": [
        1.0000001192092896,
        0.4166666865348816
      ],
      "min": [
        -2.220446313948109e-16,
        0.08333319425582886
      ],
      "type": "VEC2"
    },
    {
      "bufferView": 0,
      "byteOffset": 129024,
      "componentType": 5125,
      "count": 31104,
      "type": "SCALAR"
    }
  ],
  "asset": {
    "extras": {
      "author": "stratt3000 (https://sketchfab.com/stratt3000)",
      "license": "CC-BY-4.0 (http://creativecommons.org/licenses/by/4.0/)",
      "source": "https://sketchfab.com/3d-models/chocolate-donut-69545db8860c46f28c39d8e088a3da43",
      "title": "Chocolate Donut"
    },
    "generator": "Sketchfab-16.8.0",
    "version": "2.0"
  },
  "bufferViews": [
    {
      "buffer": 0,
      "byteLength": 253440,
      "name": "floatBufferViews",
      "target": 34963
    },
    {
      "buffer": 0,
      "byteLength": 174680,
      "byteOffset": 253440,
      "byteStride": 8,
      "name": "floatBufferViews",
      "target": 34962
    },
    {
      "buffer": 0,
      "byteLength": 258264,
      "byteOffset": 428120,
      "byteStride": 12,
      "name": "floatBufferViews",
      "target": 34962
    }
  ],
  "buffers": [
    {
      "byteLength": 686384,
      "uri": "scene.bin"
    }
  ],
  "extensionsUsed": [
    "KHR_materials_sheen",
    "KHR_materials_specular"
  ],
  "images": [
    {
      "uri": "textures/Material.001_baseColor.png"
    },
    {
      "uri": "textures/Material.001_metallicRoughness.png"
    },
    {
      "uri": "textures/Material_specularf0.png"
    }
  ],
  "materials": [
    {
      "doubleSided": true,
      "extensions": {
        "KHR_materials_sheen": {
          "sheenColorFactor": [
            1.0,
            0.697404,
            0.44233
          ],
          "sheenRoughnessFactor": 0.199115
        },
        "KHR_materials_specular": {
          "specularColorFactor": [
            1.0,
            1.0,
            1.0
          ],
          "specularFactor": 0.415929
        }
      },
      "name": "Material.001",
      "pbrMetallicRoughness": {
        "baseColorTexture": {
          "index": 0
        },
        "metallicFactor": 0.0,
        "metallicRoughnessTexture": {
          "index": 1
        }
      }
    },
    {
      "doubleSided": true,
      "extensions": {
        "KHR_materials_specular": {
          "specularColorFactor": [
            1.0,
            1.0,
            1.0
          ],
          "specularFactor": 1.0,
          "specularTexture": {
            "index": 2
          }
        }
      },
      "name": "Material",
      "pbrMetallicRoughness": {
        "baseColorFactor": [
          0.0285735,
          0.00849158,
          0.00165682,
          1.0
        ],
        "metallicFactor": 0.0,
        "roughnessFactor": 0.2
      }
    }
  ],
  "meshes": [
    {
      "name": "Object_0",
      "primitives": [
        {
          "attributes": {
            "NORMAL": 1,
            "POSITION": 0,
            "TEXCOORD_0": 2,
            "TEXCOORD_1": 3,
            "TEXCOORD_2": 4
          },
          "indices": 5,
          "material": 0,
          "mode": 4
        }
      ]
    },
    {
      "name": "Object_1",
      "primitives": [
        {
          "attributes": {
            "NORMAL": 7,
            "POSITION": 6,
            "TEXCOORD_0": 8
          },
          "indices": 9,
          "material": 1,
          "mode": 4
        }
      ]
    }
  ],
  "nodes": [
    {
      "children": [
        1
      ],
      "matrix": [
        1.0,
        0.0,
        0.0,
        0.0,
        0.0,
        2.220446049250313e-16,
        -1.0,
        0.0,
        0.0,
        1.0,
        2.220446049250313e-16,
        0.0,
        0.0,
        0.0,
        0.0,
        1.0
      ],
      "name": "Sketchfab_model"
    },
    {
      "children": [
        2
      ],
      "name": "root"
    },
    {
      "children": [
        3
      ],
      "matrix": [
        1.0,
        0.0,
        0.0,
        0.0,
        0.0,
        2.220446049250313e-16,
        1.0,
        0.0,
        0.0,
        -1.0,
        2.220446049250313e-16,
        0.0,
        0.0,
        0.0,
        0.0,
        1.0
      ],
      "name": "GLTF_SceneRootNode"
    },
    {
      "children": [
        4,
        5
      ],
      "matrix": [
        -0.9439984116308686,
        0.036263967247200504,
        0.3279510992783699,
        0.0,
        0.06940009772562951,
        0.9935294747203501,
        0.08990444537161776,
        0.0,
        -0.3225687915376662,
        0.10762949196850785,
        -0.9404069689153365,
        0.0,
        0.0,
        0.1687762290239334,
        0.0,
        1.0
      ],
      "name": "donut_1"
    },
    {
      "mesh": 0,
      "name": "Object_4"
    },
    {
      "children": [
        6
      ],
      "name": "icing_0"
    },
    {
      "mesh": 1,
      "name": "Object_6"
    }
  ],
  "samplers": [
    {
      "magFilter": 9729,
      "minFilter": 9987,
      "wrapS": 10497,
      "wrapT": 10497
    }
  ],
  "scene": 0,
  "scenes": [
    {
      "name": "Sketchfab_Scene",
      "nodes": [
        0
      ]
    }
  ],
  "textures": [
    {
      "sampler": 0,
      "source": 0
    },
    {
      "sampler": 0,
      "source": 1
    },
    {
      "sampler": 0,
      "source": 2
    }
  ]
}
